<?xml version="1.0" encoding="iso-8859-1"?>
<!-- Uploaded to: SVG Repo, www.svgrepo.com, Generator: SVG Repo Mixer Tools -->
<svg fill="#000000" height="800px" width="800px" version="1.1" id="Layer_1" xmlns="http://www.w3.org/2000/svg" xmlns:xlink="http://www.w3.org/1999/xlink" 
	 viewBox="0 0 510.865 510.865" xml:space="preserve">
<g>
	<g>
		<path d="M411.258,267.13h65.647c-4.452-44.7-22.35-85.415-49.33-118.383l5.944-5.966l6.522,6.522
			c4.341,4.341,10.04,6.522,15.738,6.522s11.398-2.182,15.738-6.522c8.704-8.704,8.704-22.773,0-31.477l-44.522-44.522
			c-8.704-8.704-22.773-8.704-31.477,0c-8.704,8.704-8.704,22.773,0,31.477l6.522,6.522l-5.966,5.966
			c-32.968-27.002-73.683-44.878-118.383-49.33V44.522h22.261c12.31,0,22.261-9.973,22.261-22.261
			C322.215,9.973,312.264,0,299.954,0h-89.043C198.6,0,188.65,9.973,188.65,22.261c0,12.288,9.951,22.261,22.261,22.261h22.261
			V67.94c-44.7,4.452-85.415,22.305-118.383,49.308l-5.966-5.944l6.522-6.522c8.704-8.704,8.704-22.773,0-31.477
			c-8.704-8.704-22.773-8.704-31.477,0l-44.522,44.522c-8.704,8.704-8.704,22.773,0,31.477c4.341,4.341,10.04,6.522,15.738,6.522
			s11.398-2.182,15.738-6.522l6.522-6.522l5.966,5.944c-27.002,32.991-44.9,73.706-49.352,118.406h65.647
			c12.31,0,22.261,9.973,22.261,22.261c0,12.288-9.951,22.261-22.261,22.261H33.959c10.463,105.005,94.208,188.75,199.213,199.213
			v-65.647c0-12.288,9.951-22.261,22.261-22.261c12.31,0,22.261,9.973,22.261,22.261v65.647
			c105.005-10.463,188.75-94.208,199.213-199.213h-65.647c-12.31,0-22.261-9.973-22.261-22.261
			C388.998,277.103,398.948,267.13,411.258,267.13z M277.693,289.391c0,12.288-9.951,22.261-22.261,22.261
			c-12.31,0-22.261-9.973-22.261-22.261v-89.044c0-12.288,9.951-22.261,22.261-22.261c12.31,0,22.261,9.973,22.261,22.261V289.391z"
			/>
	</g>
</g>
</svg>